<mxfile host="65bd71144e">
    <diagram id="aN4fs3I5FJowKOMURYej" name="Page-1">
        <mxGraphModel dx="1119" dy="813" grid="1" gridSize="10" guides="1" tooltips="1" connect="1" arrows="1" fold="1" page="1" pageScale="1" pageWidth="850" pageHeight="1100" math="0" shadow="0">
            <root>
                <mxCell id="0"/>
                <mxCell id="1" parent="0"/>
                <mxCell id="6" value="" style="group" vertex="1" connectable="0" parent="1">
                    <mxGeometry x="30" y="350" width="80" height="80" as="geometry"/>
                </mxCell>
                <mxCell id="2" value="" style="ellipse;whiteSpace=wrap;html=1;aspect=fixed;" vertex="1" parent="6">
                    <mxGeometry width="80" height="80" as="geometry"/>
                </mxCell>
                <mxCell id="3" value="Acessar SMS" style="text;html=1;strokeColor=none;fillColor=none;align=center;verticalAlign=middle;whiteSpace=wrap;rounded=0;" vertex="1" parent="6">
                    <mxGeometry x="10" y="25" width="60" height="30" as="geometry"/>
                </mxCell>
                <mxCell id="7" value="" style="group" vertex="1" connectable="0" parent="1">
                    <mxGeometry x="710" y="350" width="80" height="80" as="geometry"/>
                </mxCell>
                <mxCell id="4" value="" style="ellipse;whiteSpace=wrap;html=1;aspect=fixed;" vertex="1" parent="7">
                    <mxGeometry width="80" height="80" as="geometry"/>
                </mxCell>
                <mxCell id="5" value="Enviar relatório&lt;br&gt;p/ Email" style="text;html=1;strokeColor=none;fillColor=none;align=center;verticalAlign=middle;whiteSpace=wrap;rounded=0;" vertex="1" parent="7">
                    <mxGeometry x="10" y="25" width="60" height="30" as="geometry"/>
                </mxCell>
                <mxCell id="10" value="" style="group" vertex="1" connectable="0" parent="1">
                    <mxGeometry x="160" y="360" width="120" height="60" as="geometry"/>
                </mxCell>
                <mxCell id="8" value="" style="rounded=1;whiteSpace=wrap;html=1;" vertex="1" parent="10">
                    <mxGeometry width="120" height="60" as="geometry"/>
                </mxCell>
                <mxCell id="9" value="Baixar o .xlsx do SMS" style="text;html=1;strokeColor=none;fillColor=none;align=center;verticalAlign=middle;whiteSpace=wrap;rounded=0;" vertex="1" parent="10">
                    <mxGeometry x="20" y="15" width="80" height="30" as="geometry"/>
                </mxCell>
                <mxCell id="16" value="" style="group" vertex="1" connectable="0" parent="1">
                    <mxGeometry x="340" y="360" width="120" height="60" as="geometry"/>
                </mxCell>
                <mxCell id="14" value="" style="rounded=1;whiteSpace=wrap;html=1;" vertex="1" parent="16">
                    <mxGeometry width="120" height="60" as="geometry"/>
                </mxCell>
                <mxCell id="15" value="Copiar e colar o conteúdo de um excel para outro" style="text;html=1;strokeColor=none;fillColor=none;align=center;verticalAlign=middle;whiteSpace=wrap;rounded=0;" vertex="1" parent="16">
                    <mxGeometry x="7.5" y="15" width="105" height="30" as="geometry"/>
                </mxCell>
                <mxCell id="19" value="" style="group" vertex="1" connectable="0" parent="1">
                    <mxGeometry x="550" y="360" width="120" height="60" as="geometry"/>
                </mxCell>
                <mxCell id="17" value="" style="rounded=1;whiteSpace=wrap;html=1;" vertex="1" parent="19">
                    <mxGeometry width="120" height="60" as="geometry"/>
                </mxCell>
                <mxCell id="18" value="Gerar relatório" style="text;html=1;strokeColor=none;fillColor=none;align=center;verticalAlign=middle;whiteSpace=wrap;rounded=0;" vertex="1" parent="19">
                    <mxGeometry x="30" y="15" width="60" height="30" as="geometry"/>
                </mxCell>
                <mxCell id="20" value="" style="endArrow=classic;html=1;entryX=0.5;entryY=0;entryDx=0;entryDy=0;" edge="1" parent="1" target="8">
                    <mxGeometry width="50" height="50" relative="1" as="geometry">
                        <mxPoint x="70" y="350" as="sourcePoint"/>
                        <mxPoint x="210" y="280" as="targetPoint"/>
                        <Array as="points">
                            <mxPoint x="140" y="290"/>
                        </Array>
                    </mxGeometry>
                </mxCell>
                <mxCell id="21" value="" style="endArrow=classic;html=1;exitX=0.5;exitY=1;exitDx=0;exitDy=0;" edge="1" parent="1" source="8">
                    <mxGeometry width="50" height="50" relative="1" as="geometry">
                        <mxPoint x="290" y="510" as="sourcePoint"/>
                        <mxPoint x="370" y="420" as="targetPoint"/>
                        <Array as="points">
                            <mxPoint x="300" y="480"/>
                        </Array>
                    </mxGeometry>
                </mxCell>
                <mxCell id="22" value="" style="endArrow=classic;html=1;exitX=0.5;exitY=0;exitDx=0;exitDy=0;entryX=0.142;entryY=0.011;entryDx=0;entryDy=0;entryPerimeter=0;" edge="1" parent="1" source="14" target="17">
                    <mxGeometry width="50" height="50" relative="1" as="geometry">
                        <mxPoint x="540" y="350" as="sourcePoint"/>
                        <mxPoint x="590" y="300" as="targetPoint"/>
                        <Array as="points">
                            <mxPoint x="480" y="300"/>
                        </Array>
                    </mxGeometry>
                </mxCell>
                <mxCell id="23" value="" style="endArrow=classic;html=1;exitX=0.5;exitY=1;exitDx=0;exitDy=0;entryX=0;entryY=1;entryDx=0;entryDy=0;" edge="1" parent="1" source="17" target="4">
                    <mxGeometry width="50" height="50" relative="1" as="geometry">
                        <mxPoint x="570" y="540" as="sourcePoint"/>
                        <mxPoint x="730" y="430" as="targetPoint"/>
                        <Array as="points">
                            <mxPoint x="670" y="480"/>
                        </Array>
                    </mxGeometry>
                </mxCell>
            </root>
        </mxGraphModel>
    </diagram>
</mxfile>